# File created by Blade
# Date/Time:  Fri Jan 16 17:45:47 2015
#---------------------------------------------------------
:version 1.10
:name HOM
:units
  mass 1.0
  length 1.000000
  angle deg
:documentation
     Acclaim Skeleton File
:root
   axis xyz
   order TX TY TZ RX RY RZ
   position 0.000000 0.000000 0.000000
   orientation 0 0 0
:bonedata
   begin
      id 1
      name Spine_dum
      direction 0.000000 1.000000 0.000000
      length 7.170412
      axis 0.0 0.0 0.0 xyz
   end
   begin
      id 2
      name LeftUpLeg_dum
      direction 1.000000 0.000000 0.000000
      length 4.318350
      axis 0.0 0.0 0.0 xyz
   end
   begin
      id 3
      name RightUpLeg_dum
      direction -1.000000 0.000000 0.000000
      length 4.318350
      axis 0.0 0.0 0.0 xyz
   end
   begin
      id 4
      name Spine
      direction 0.000000 1.000000 0.000000
      length 0.000000
      axis 0.0 0.0 0.0 xyz
      dof rx ry rz
   end
   begin
      id 5
      name Spine_dum1
      direction 0.000000 1.000000 0.000000
      length 14.276153
      axis 0.0 0.0 0.0 xyz
   end
   begin
      id 6
      name Spine_dum2
      direction 0.000000 1.000000 0.000000
      length 10.718243
      axis 0.0 0.0 0.0 xyz
   end
   begin
      id 7
      name Spine_dum3
      direction 0.000000 1.000000 0.000000
      length 10.718243
      axis 0.0 0.0 0.0 xyz
   end
   begin
      id 8
      name Head
      direction 0.000000 1.000000 0.000000
      length 4.527550
      axis 0.0 0.0 0.0 xyz
      dof rx ry rz
   end
   begin
      id 9
      name LeftShoulder
      direction 1.000000 0.000000 0.000000
      length 7.058872
      axis 0.0 0.0 -90.0 xyz
      dof rx ry rz
   end
   begin
      id 10
      name LeftArm
      direction 1.000000 0.000000 0.000000
      length 10.955525
      axis 0.0 0.0 -90.0 xyz
      dof rx ry rz
   end
   begin
      id 11
      name LeftForeArm
      direction 1.000000 0.000000 0.000000
      length 8.193716
      axis 0.0 0.0 -90.0 xyz
      dof ry rz rx
   end
   begin
      id 12
      name LeftHand
      direction 0.000000 0.000000 0.000000
      length 0.000000
      axis 0.0 0.0 -90.0 xyz
      dof rx ry rz
   end
   begin
      id 13
      name LeftHand_dum1
      direction 0.000000 0.000000 0.000000
      length 0.000000
      axis 0.0 0.0 -90.0 xyz
   end
   begin
      id 14
      name LeftHand_dum2
      direction 1.000000 0.000000 0.000000
      length 3.937000
      axis 0.0 0.0 -90.0 xyz
   end
   begin
      id 15
      name LeftHandThumb1
      direction 0.000000 0.000000 1.000000
      length 3.937000
      axis 0.0 0.0 -90.0 xyz
      dof rx rz ry
   end
   begin
      id 16
      name RightShoulder
      direction -1.000000 0.000000 0.000000
      length 7.058872
      axis 0.0 0.0 90.0 xyz
      dof rx ry rz
   end
   begin
      id 17
      name RightArm
      direction -1.000000 0.000000 0.000000
      length 10.955525
      axis 0.0 0.0 90.0 xyz
      dof rx ry rz
   end
   begin
      id 18
      name RightForeArm
      direction -1.000000 0.000000 0.000000
      length 8.193716
      axis 0.0 0.0 90.0 xyz
      dof ry rz rx
   end
   begin
      id 19
      name RightHand
      direction 0.000000 0.000000 0.000000
      length 0.000000
      axis 0.0 0.0 90.0 xyz
      dof rx ry rz
   end
   begin
      id 20
      name RightHand_dum1
      direction 0.000000 0.000000 0.000000
      length 0.000000
      axis 0.0 0.0 90.0 xyz
   end
   begin
      id 21
      name RightHand_dum2
      direction -1.000000 0.000000 0.000000
      length 3.937000
      axis 0.0 0.0 90.0 xyz
   end
   begin
      id 22
      name RightHandThumb1
      direction 0.000000 0.000000 1.000000
      length 3.937000
      axis 0.0 0.0 90.0 xyz
      dof rx rz ry
   end
   begin
      id 23
      name LeftUpLeg
      direction 0.000000 -1.000000 0.000000
      length 17.323638
      axis 0.0 0.0 0.0 xyz
      dof rx ry rz
   end
   begin
      id 24
      name LeftLeg
      direction 0.000000 -1.000000 0.000000
      length 16.270368
      axis 0.0 0.0 0.0 xyz
      dof rx ry rz
   end
   begin
      id 25
      name LeftFoot
      direction 0.000000 -0.258819 0.965926
      length 4.922846
      axis 15.0 0.0 0.0 xyz
      dof rx ry rz
   end
   begin
      id 26
      name LeftToeBase
      direction 0.000000 0.000000 1.000000
      length 2.952750
      axis 0.0 0.0 0.0 xyz
      dof rx ry rz
   end
   begin
      id 27
      name RightUpLeg
      direction 0.000000 -1.000000 0.000000
      length 17.323638
      axis 0.0 0.0 0.0 xyz
      dof rx ry rz
   end
   begin
      id 28
      name RightLeg
      direction 0.000000 -1.000000 0.000000
      length 16.270368
      axis 0.0 0.0 0.0 xyz
      dof rx ry rz
   end
   begin
      id 29
      name RightFoot
      direction 0.000000 -0.258819 0.965926
      length 4.922846
      axis 15.0 0.0 0.0 xyz
      dof rx ry rz
   end
   begin
      id 30
      name RightToeBase
      direction 0.000000 0.000000 1.000000
      length 2.952750
      axis 0.0 0.0 0.0 xyz
      dof rx ry rz
   end
:hierarchy
   begin
      root Spine_dum LeftUpLeg_dum RightUpLeg_dum
      Spine_dum Spine
      LeftUpLeg_dum LeftUpLeg
      RightUpLeg_dum RightUpLeg
      Spine Spine_dum1 Spine_dum2 Spine_dum3
      Spine_dum1 Head
      Spine_dum2 LeftShoulder
      Spine_dum3 RightShoulder
      LeftShoulder LeftArm
      LeftArm LeftForeArm
      LeftForeArm LeftHand
      LeftHand LeftHand_dum1 LeftHand_dum2
      LeftHand_dum1 LeftHandThumb1
      RightShoulder RightArm
      RightArm RightForeArm
      RightForeArm RightHand
      RightHand RightHand_dum1 RightHand_dum2
      RightHand_dum1 RightHandThumb1
      LeftUpLeg LeftLeg
      LeftLeg LeftFoot
      LeftFoot LeftToeBase
      RightUpLeg RightLeg
      RightLeg RightFoot
      RightFoot RightToeBase
   end

# File created by Blade
# Date/Time:  Fri Jan 16 17:45:28 2015
# Frame Rate: 120.000 fps
#------------------------------------------------------
:FULLY-SPECIFIED
:DEGREES
1389
root -5.473081 35.280886 -10.392462 -3.294303 -7.209958 -5.876545
Spine 0.279597 0.403477 12.045107
Head 5.222766 5.510465 -11.181783
LeftShoulder -18.482787 14.108884 -17.935606
LeftArm 19.363594 3.944793 -73.246271
LeftForeArm 3.376754 -0.000000 11.502548
LeftHand 1.845445 -0.000000 -6.461532
LeftHandThumb1 -26.253704 0.000000 33.147579
RightShoulder 0.373946 2.075844 1.740151
RightArm 6.518192 29.555522 75.390540
RightForeArm 27.128387 -0.000000 154.159093
RightHand 24.797727 -0.000000 -0.130829
RightHandThumb1 -24.326973 -0.000000 -32.862282
LeftUpLeg 12.778751 16.099364 7.840647
LeftLeg -8.418210 -0.000000 0.000000
LeftFoot -15.407771 27.259978 -8.598418
LeftToeBase 22.849540 -0.000000 -0.000000
RightUpLeg 8.758629 -3.626584 4.190229
RightLeg -3.986171 -0.000000 0.000000
RightFoot -3.715356 -26.724878 3.218312
RightToeBase 13.752560 -0.000000 -0.000000
1390
root -5.472767 35.281584 -10.393809 -3.294700 -7.236782 -5.870637
Spine 0.293293 0.431767 12.036242
Head 5.199856 5.525079 -11.182093
LeftShoulder -18.489888 14.116566 -17.947188
LeftArm 19.371673 3.901740 -73.256746
LeftForeArm 3.330303 -0.000000 11.579053
LeftHand 1.848650 0.000000 -6.492352
LeftHandThumb1 -26.253704 0.000000 33.147579
RightShoulder 0.389086 2.084360 1.752673
RightArm 6.377031 29.491587 75.372623
RightForeArm 27.170521 -0.000000 153.943778
RightHand 24.535841 0.000000 -0.474838
RightHandThumb1 -24.326973 -0.000000 -32.862282
LeftUpLeg 12.772485 16.104696 7.833719
LeftLeg -8.395217 -0.000000 0.000000
LeftFoot -15.423716 27.271950 -8.616992
LeftToeBase 22.831474 -0.000000 -0.000000
RightUpLeg 8.753161 -3.606545 4.186220
RightLeg -3.983320 -0.000000 0.000000
RightFoot -3.705991 -26.722310 3.194787
RightToeBase 13.720123 -0.000000 -0.000000
1391
root -5.472989 35.281975 -10.395284 -3.295477 -7.270477 -5.870470
Spine 0.317480 0.465870 12.040978
Head 5.162589 5.550571 -11.200870
LeftShoulder -18.506475 14.121253 -17.965312
LeftArm 19.384260 3.886292 -73.257600
LeftForeArm 3.312615 -0.000000 11.672844
LeftHand 1.859640 0.000000 -6.565074
LeftHandThumb1 -26.253704 0.000000 33.147579
RightShoulder 0.432184 2.199518 1.771355
RightArm 6.104929 29.491768 75.280235
RightForeArm 27.316720 -0.000000 153.738283
RightHand 24.469650 -0.000000 -0.573512
RightHandThumb1 -24.326973 -0.000000 -32.862282
LeftUpLeg 12.775399 16.115650 7.835574
LeftLeg -8.386223 -0.000000 0.000000
LeftFoot -15.433345 27.281778 -8.635675
LeftToeBase 22.816654 -0.000000 -0.000000
RightUpLeg 8.747384 -3.587294 4.188709
RightLeg -3.980345 -0.000000 0.000000
RightFoot -3.699516 -26.723393 3.177786
RightToeBase 13.765949 -0.000000 -0.000000
1392
root -5.472141 35.282541 -10.397094 -3.294993 -7.296395 -5.868760
Spine 0.338422 0.495513 12.050273
Head 5.125869 5.580522 -11.229160
LeftShoulder -18.519411 14.129967 -17.992299
LeftArm 19.404953 3.896787 -73.238694
LeftForeArm 3.256531 -0.000000 11.763197
LeftHand 1.883621 -0.000000 -6.581503
LeftHandThumb1 -26.253704 0.000000 33.147579
RightShoulder 0.480835 2.146030 1.788775
RightArm 5.998663 29.411129 75.227450
RightForeArm 27.283441 -0.000000 153.485148
RightHand 24.260883 0.000000 -0.864211
RightHandThumb1 -24.326973 -0.000000 -32.862282
LeftUpLeg 12.775328 16.127536 7.832808
LeftLeg -8.380155 -0.000000 0.000000
LeftFoot -15.435711 27.292602 -8.647987
LeftToeBase 22.808103 -0.000000 -0.000000
RightUpLeg 8.741244 -3.565911 4.187080
RightLeg -3.979540 -0.000000 0.000000
RightFoot -3.694154 -26.718694 3.181062
RightToeBase 13.755917 -0.000000 -0.000000
1393
root -5.469534 35.282653 -10.398813 -3.292437 -7.323500 -5.860396
Spine 0.357381 0.528105 12.052513
Head 5.090078 5.590542 -11.258124
LeftShoulder -18.527772 14.112945 -18.005562
LeftArm 19.401945 3.946070 -73.212697
LeftForeArm 3.244204 -0.000000 11.844939
LeftHand 1.964400 -0.000000 -6.602970
LeftHandThumb1 -26.253704 0.000000 33.147579
RightShoulder 0.533085 2.121773 1.792244
RightArm 5.825633 29.296335 75.141558
RightForeArm 27.195426 -0.000000 153.179527
RightHand 24.073795 -0.000000 -1.285102
RightHandThumb1 -24.326973 -0.000000 -32.862282
LeftUpLeg 12.767379 16.150531 7.820924
LeftLeg -8.365981 -0.000000 0.000000
LeftFoot -15.448848 27.299963 -8.656202
LeftToeBase 22.813117 -0.000000 -0.000000
RightUpLeg 8.723015 -3.570468 4.175128
RightLeg -3.961305 -0.000000 0.000000
RightFoot -3.696835 -26.706487 3.174431
RightToeBase 13.730745 -0.000000 -0.000000
1394
root -5.469538 35.282928 -10.399336 -3.299011 -7.345310 -5.865100
Spine 0.377502 0.555331 12.058436
Head 5.072400 5.625960 -11.263618
LeftShoulder -18.536853 14.131714 -18.015772
LeftArm 19.431334 3.963663 -73.196091
LeftForeArm 3.246160 -0.000000 11.928394
LeftHand 2.043334 -0.000000 -6.607687
LeftHandThumb1 -26.253704 0.000000 33.147579
RightShoulder 0.605470 2.103299 1.817340
RightArm 5.641373 29.127879 75.017902
RightForeArm 26.905994 -0.000000 152.846114
RightHand 23.652469 -0.000000 -1.950336
RightHandThumb1 -24.326973 -0.000000 -32.862282
LeftUpLeg 12.777516 16.160289 7.829229
LeftLeg -8.361512 -0.000000 0.000000
LeftFoot -15.459038 27.305825 -8.660106
LeftToeBase 22.831755 -0.000000 -0.000000
RightUpLeg 8.729223 -3.563857 4.180234
RightLeg -3.963916 -0.000000 0.000000
RightFoot -3.673272 -26.692082 3.137352
RightToeBase 13.784086 -0.000000 -0.000000
1395
root -5.468113 35.282966 -10.401874 -3.298110 -7.359599 -5.865156
Spine 0.395106 0.573335 12.061919
Head 5.047580 5.647334 -11.280047
LeftShoulder -18.558241 14.116810 -18.024925
LeftArm 19.441090 3.999213 -73.176683
LeftForeArm 3.268989 -0.000000 12.021602
LeftHand 2.063422 0.000000 -6.690708
LeftHandThumb1 -26.253704 0.000000 33.147579
RightShoulder 0.643887 2.040141 1.873856
RightArm 5.504856 28.875993 74.820190
RightForeArm 26.516582 0.000000 152.411766
RightHand 23.219666 -0.000000 -2.581843
RightHandThumb1 -24.326973 -0.000000 -32.862282
LeftUpLeg 12.770814 16.176542 7.829204
LeftLeg -8.348173 -0.000000 0.000000
LeftFoot -15.462182 27.294473 -8.661851
LeftToeBase 22.843772 -0.000000 -0.000000
RightUpLeg 8.753793 -3.410229 4.188907
RightLeg -4.019846 -0.000000 0.000000
RightFoot -3.671389 -26.784480 3.217250
RightToeBase 13.769795 -0.000000 -0.000000
1396
root -5.466576 35.282870 -10.402886 -3.300588 -7.376642 -5.866351
Spine 0.407854 0.597126 12.054049
Head 5.041497 5.659580 -11.264351
LeftShoulder -18.571886 14.107684 -18.013179
LeftArm 19.451504 4.059967 -73.161365
LeftForeArm 3.300324 -0.000000 12.080703
LeftHand 2.090177 -0.000000 -6.717138
LeftHandThumb1 -26.253704 0.000000 33.147579
RightShoulder 0.709172 2.011595 1.902623
RightArm 5.278811 28.844380 74.661004
RightForeArm 26.595376 -0.000000 151.832601
RightHand 22.994875 -0.000000 -2.630775
RightHandThumb1 -24.326973 -0.000000 -32.862282
LeftUpLeg 12.779163 16.204215 7.833325
LeftLeg -8.352119 -0.000000 0.000000
LeftFoot -15.457025 27.278647 -8.646480
LeftToeBase 22.833486 -0.000000 -0.000000
RightUpLeg 8.756924 -3.398465 4.189690
RightLeg -4.028664 -0.000000 0.000000
RightFoot -3.657732 -26.792253 3.213661
RightToeBase 13.726410 -0.000000 -0.000000
1397
root -5.464260 35.283046 -10.403960 -3.303927 -7.380884 -5.865632
Spine 0.409437 0.604644 12.002833
Head 5.062990 5.672384 -11.131703
LeftShoulder -18.609630 14.132118 -17.983868
LeftArm 19.501552 4.009627 -73.215126
LeftForeArm 3.460822 -0.000000 12.133387
LeftHand 2.055957 -0.000000 -6.734146
LeftHandThumb1 -26.253704 0.000000 33.147579
RightShoulder 0.937509 1.870488 1.961608
RightArm 4.996623 29.139342 74.471914
RightForeArm 26.682731 -0.000000 151.198066
RightHand 22.674704 -0.000000 -2.807534
RightHandThumb1 -24.326973 -0.000000 -32.862282
LeftUpLeg 12.785577 16.200080 7.828606
LeftLeg -8.360685 -0.000000 0.000000
LeftFoot -15.448947 27.284583 -8.654142
LeftToeBase 22.827664 -0.000000 -0.000000
RightUpLeg 8.754424 -3.409279 4.183789
RightLeg -4.021945 -0.000000 0.000000
RightFoot -3.653580 -26.779342 3.203860
RightToeBase 13.746998 -0.000000 -0.000000
